<svg width="120" height="40" viewBox="0 0 120 40" fill="none" xmlns="http://www.w3.org/2000/svg">
  <!-- Background circle for the "B" -->
  <circle cx="20" cy="20" r="16" fill="url(#gradient1)"/>
  
  <!-- Stylized "B" letter -->
  <path d="M14 12h6c2.2 0 4 1.8 4 4s-1.8 4-4 4h-2v4h2c2.2 0 4 1.8 4 4s-1.8 4-4 4h-6V12zm3 3v5h3c0.6 0 1-0.4 1-1v-3c0-0.6-0.4-1-1-1h-3zm0 8v5h3c0.6 0 1-0.4 1-1v-3c0-0.6-0.4-1-1-1h-3z" fill="white"/>
  
  <!-- AI neural network dots -->
  <circle cx="32" cy="12" r="1.5" fill="#4ECDC4"/>
  <circle cx="36" cy="16" r="1" fill="#4ECDC4" opacity="0.7"/>
  <circle cx="34" cy="20" r="1.2" fill="#4ECDC4" opacity="0.8"/>
  <circle cx="38" cy="24" r="1" fill="#4ECDC4" opacity="0.6"/>
  <circle cx="32" cy="28" r="1.5" fill="#4ECDC4"/>
  
  <!-- Connecting lines for neural network -->
  <line x1="32" y1="12" x2="34" y2="20" stroke="#4ECDC4" stroke-width="0.5" opacity="0.4"/>
  <line x1="36" y1="16" x2="34" y2="20" stroke="#4ECDC4" stroke-width="0.5" opacity="0.4"/>
  <line x1="34" y1="20" x2="32" y2="28" stroke="#4ECDC4" stroke-width="0.5" opacity="0.4"/>
  <line x1="34" y1="20" x2="38" y2="24" stroke="#4ECDC4" stroke-width="0.5" opacity="0.4"/>
  
  <!-- Text "buzzMint" -->
  <text x="44" y="16" font-family="system-ui, -apple-system, sans-serif" font-size="12" font-weight="600" fill="#2C3E50">buzz</text>
  <text x="44" y="28" font-family="system-ui, -apple-system, sans-serif" font-size="12" font-weight="600" fill="#FF6B6B">Mint</text>
  
  <!-- Gradient definitions -->
  <defs>
    <linearGradient id="gradient1" x1="0%" y1="0%" x2="100%" y2="100%">
      <stop offset="0%" style="stop-color:#FF6B6B;stop-opacity:1" />
      <stop offset="100%" style="stop-color:#4ECDC4;stop-opacity:1" />
    </linearGradient>
  </defs>
</svg> 